<svg width="96" height="94" fill="none" xmlns="http://www.w3.org/2000/svg"><path d="m93.52 19.833-7.968-3.407c-4.508-1.926-9.593-1.52-13.865.327l3.42-8.99c.747-1.992.577-4.101-.484-5.648-.904-1.297-2.36-2.07-3.919-2.07-1.114 0-2.201.393-3.145 1.126L54.585 11.21c-.04.04-.092.066-.131.118H39.488c-.04-.052-.092-.079-.131-.118L26.397 1.171C25.438.437 24.35.044 23.236.044c-1.559 0-3.013.774-3.918 2.07-1.061 1.548-1.232 3.657-.472 5.65l3.08 8.125c-3.709-1.062-7.771-1.036-11.467.537l-7.968 3.407c-2.568 1.1-3.263 3.826-1.559 6.093l5.308 7.077c3.263 4.351 8.4 6.645 13.38 6.972l2.084 22.947a10.437 10.437 0 0 0-2.19 4.39l-.864 3.853-.289 1.246c-.629 2.752-.13 5.583 1.416 7.98a11.328 11.328 0 0 0 2.988 3.133c-.04.747.091 1.494.393 2.188l1.926 4.417c1.232 2.83 4.68 3.826 7.51 3.826H61.36c2.818 0 6.278-.996 7.51-3.826l1.926-4.417a4.825 4.825 0 0 0 .393-2.176 11.736 11.736 0 0 0 2.975-3.145c1.546-2.398 2.044-5.228 1.428-7.968l-.288-1.27-.891-3.84a10.445 10.445 0 0 0-2.163-4.364l2.084-22.947c5.57.248 11.703-2.044 15.425-6.999l5.307-7.077c1.704-2.266 1.01-4.993-1.546-6.093ZM65.266 88.556c-.38.852-2.005 1.468-3.906 1.468H32.594c-1.9 0-3.525-.616-3.904-1.468l-1.312-2.987c.918.21 1.875.314 2.845.314h33.51c.97 0 1.926-.104 2.83-.301l-1.297 2.974Zm-34.611-6.605h-.432a8.963 8.963 0 0 1-3.88-.864 7.683 7.683 0 0 1-1.769-1.128 7.29 7.29 0 0 1-1.494-1.69l-.366-4.076-.21-2.28.851-3.722c.76-3.38 4.129-5.805 8.02-5.805h31.191c3.906 0 7.247 2.425 8.02 5.805l.852 3.722-.196 2.254-.367 4.076c-.014.013-.014.026-.027.039a7.126 7.126 0 0 1-1.48 1.664 7.296 7.296 0 0 1-1.77 1.14 8.866 8.866 0 0 1-3.866.865H30.655Zm13.184-39.079V14.211h6.264v28.661c0 5.596 1.678 11.047 4.81 15.583h-15.87c3.118-4.536 4.796-9.987 4.796-15.583ZM70.704 3.975c.773 0 1.22 1.089.721 2.4l-3.25 8.53a21.714 21.714 0 0 0-7.85-3.158l9.632-7.47c.275-.21.525-.302.747-.302Zm-6.093 31.99s.013 0 .013.014c.72.315 1.323.838 1.73 1.507.353.576.563 1.258.563 1.979v1.86c0 2.097-1.704 3.8-3.8 3.8h-1.52a3.806 3.806 0 0 1-3.815-3.8v-1.86c0-2.098 1.704-3.8 3.814-3.8h1.52c.525 0 1.035.104 1.495.3Zm-28.452 5.36c0 2.098-1.703 3.8-3.8 3.8h-1.52a3.803 3.803 0 0 1-3.8-3.8v-1.86c0-.197.012-.394.051-.59a3.784 3.784 0 0 1 3.748-3.21h1.521c2.097 0 3.8 1.703 3.8 3.8v1.86Zm-10.392-26.42-3.25-8.53c-.498-1.311-.052-2.4.72-2.4.224 0 .486.093.747.302l9.646 7.47c-2.817.538-5.491 1.599-7.863 3.159Zm49.747 12.018c.026-.314.04-.629.04-.943 0-1.271-.237-2.543-.708-3.723 1.559-.616 3.866-1.074 6.342-.025l3.133 1.336c1.612.694 2.057 2.424.983 3.866l-2.084 2.765c-1.56 2.084-3.643 2.883-5.111 3.185-1.075.222-2.176.262-3.185.104l.59-6.565Zm-57.086 0 .603 6.618a8.417 8.417 0 0 1-1.14-.157c-1.468-.302-3.538-1.1-5.098-3.184l-2.084-2.766c-1.088-1.442-.642-3.172.983-3.866l3.12-1.336c1.624-.695 3.183-.735 4.507-.498a10.117 10.117 0 0 0-.93 4.246c0 .314.013.629.04.943Z" fill="#4E301B"/></svg>