<svg xmlns="http://www.w3.org/2000/svg" width="276" height="38" fill="none"><path fill="#4E301B" d="M26.56 28.48c-1.627 1.093-3.467 2.093-5.52 3a48.377 48.377 0 0 1-5.92 2.12 19.48 19.48 0 0 1-2.6.56c-.907.16-1.787.307-2.64.44l-.96.16c-.293.053-.6.08-.92.08-.107 0-.253-.013-.44-.04-.187-.027-.28-.12-.28-.28 0-.187.12-.333.36-.44.267-.107.533-.187.8-.24.267-.08.533-.173.8-.28.347-.133.68-.267 1-.4.32-.133.653-.267 1-.4 2.16-.88 4.24-1.84 6.24-2.88a25.29 25.29 0 0 0 5.56-4.04 30.3 30.3 0 0 1 1.76 1.32c.587.427 1.173.867 1.76 1.32Zm5 3.2c0 .107-.067.213-.2.32-.133.08-.24.147-.32.2a57.8 57.8 0 0 1-10.12 4.16c-3.44 1.067-7.04 1.6-10.8 1.6H9.6c-.24 0-.467-.04-.68-.12-.213-.053-.32-.16-.32-.32 0-.107.053-.2.16-.28.107-.08.2-.133.28-.16.213-.08.427-.147.64-.2a3.99 3.99 0 0 0 .6-.12c.373-.107.76-.213 1.16-.32.4-.107.787-.213 1.16-.32a77.974 77.974 0 0 0 5.2-1.84 54.03 54.03 0 0 0 5.36-2.44c1.76-.907 3.28-1.907 4.56-3 .107.08.36.253.76.52s.84.573 1.32.92c.48.32.893.613 1.24.88s.52.44.52.52Zm-9.04-6.64a83.277 83.277 0 0 1-3.16 2.08c-1.2.773-2.48 1.52-3.84 2.24a35.034 35.034 0 0 1-4.04 1.76c-1.307.453-2.493.68-3.56.68-.267 0-.4-.107-.4-.32 0-.107.053-.187.16-.24.56-.267 1.107-.533 1.64-.8.533-.267 1.053-.56 1.56-.88a40.76 40.76 0 0 0 4.36-3.2 46.869 46.869 0 0 0 3.96-3.68l3.32 2.36Zm17.12 3.56c0 .587-.24 1.013-.72 1.28-.48.267-.973.4-1.48.4-1.493 0-3.027-.253-4.6-.76a25.761 25.761 0 0 1-4.64-2.12 31.32 31.32 0 0 1-4.16-2.92c-1.28-1.093-2.387-2.187-3.32-3.28-.427.107-.907.253-1.44.44a6.599 6.599 0 0 0-2.36 1.4c-.293.267-.6.533-.92.8-2.133 1.653-4.267 3.053-6.4 4.2-2.133 1.12-4.52 2.013-7.16 2.68a3.99 3.99 0 0 1-.6.12c-.213.027-.427.04-.64.04a.71.71 0 0 1-.32-.08.384.384 0 0 1-.12-.28c0-.16.027-.267.08-.32.08-.053.173-.107.28-.16a116.69 116.69 0 0 0 5-3.2 37.858 37.858 0 0 0 4.44-3.52c1.413-1.28 2.747-2.76 4-4.44v-1.32c-1.067.613-2.16 1.2-3.28 1.76-1.12.533-2.267.947-3.44 1.24-.507.107-1.027.227-1.56.36a8.137 8.137 0 0 1-1.6.16.923.923 0 0 1-.32-.08c-.107-.053-.16-.133-.16-.24 0-.16.067-.28.2-.36.133-.107.253-.187.36-.24l1.36-.72c.48-.24.933-.507 1.36-.8a27.673 27.673 0 0 0 3.12-2.48 27.636 27.636 0 0 0 2.72-2.88l1.24.76v-3.4h-3.08c.133.053.387.187.76.4.4.187.773.373 1.12.56.373.187.56.333.56.44 0 .08-.04.147-.12.2-1.227.8-2.613 1.48-4.16 2.04-1.52.56-2.987 1-4.4 1.32-.24.053-.493.12-.76.2-.267.053-.533.08-.8.08a.923.923 0 0 1-.32-.08c-.107-.053-.16-.133-.16-.24 0-.16.053-.28.16-.36.107-.08.213-.147.32-.2.24-.133.48-.253.72-.36.24-.133.48-.28.72-.44a22.44 22.44 0 0 0 2.2-1.64 33.98 33.98 0 0 0 2-1.92H4.44V8.88h14.52v8.32l.96.32c.32.08.64.187.96.32.107.027.187.053.24.08.08.027.12.107.12.24s-.107.347-.32.64a9.16 9.16 0 0 1-.64.88 7.53 7.53 0 0 1-.48.56c.16-.08.453-.2.88-.36.427-.16.88-.333 1.36-.52.507-.213.96-.387 1.36-.52.427-.133.707-.2.84-.2s.28.053.44.16c.027 0 .133.147.32.44.213.267.427.547.64.84.213.293.333.467.36.52.773 1.013 1.707 2.013 2.8 3a31.271 31.271 0 0 0 3.48 2.72 29.832 29.832 0 0 0 3.56 2.08c.187-.533.44-.92.76-1.16.32-.267.76-.4 1.32-.4.4 0 .787.2 1.16.6.373.373.56.76.56 1.16Zm-4.52-9.24h-4.6v-2.84c-.827.267-1.733.547-2.72.84a40.19 40.19 0 0 1-2.96.76c-.987.187-1.907.28-2.76.28-.24 0-.36-.093-.36-.28 0-.133.107-.253.32-.36.213-.133.373-.227.48-.28a52.96 52.96 0 0 0 3.92-2.12c1.227-.747 2.4-1.693 3.52-2.84l.56.36V10.6h-2.84l.64.32c.32.16.627.333.92.52.293.16.44.293.44.4 0 .08-.04.147-.12.2-.773.48-1.747.987-2.92 1.52a27.77 27.77 0 0 1-3.52 1.28c-1.2.347-2.267.52-3.2.52-.08 0-.187-.013-.32-.04-.107-.053-.16-.133-.16-.24a.38.38 0 0 1 .16-.32c.107-.08.213-.147.32-.2a19.85 19.85 0 0 0 2.72-1.76c.827-.667 1.627-1.4 2.4-2.2h-4.68V8.88h14.76v10.48Zm2.44-15.44c0 .747-.32 1.28-.96 1.6-.64.293-1.267.44-1.88.44h-8.68c-.16.24-.44.573-.84 1-.4.4-.827.76-1.28 1.08-.453.32-.84.48-1.16.48a.64.64 0 0 1-.4-.16.493.493 0 0 1-.2-.4v-1c0-.32.013-.653.04-1h-5.92l.12 1.96-4.72.24-.12-2.2H2.64V4.08h8.84L11.28.6 16 .44l.2 3.64h6.2c.08-.64.147-1.267.2-1.88.053-.64.12-1.28.2-1.92l5.12.68c.133.027.24.067.32.12.08.027.12.107.12.24 0 .213-.08.507-.24.88-.16.347-.347.693-.56 1.04-.187.347-.347.627-.48.84h5.32a2.925 2.925 0 0 1 .76-1.76c.453-.533 1.027-.8 1.72-.8.773 0 1.413.2 1.92.6.507.4.76 1 .76 1.8ZM58.8 12.8c0 .56-.253.987-.76 1.28-.48.267-.96.4-1.44.4h-3.36v3.32l1.36-.64c.453-.213.907-.413 1.36-.6.053.16.173.493.36 1 .213.507.44 1.093.68 1.76.267.64.52 1.28.76 1.92.267.613.48 1.133.64 1.56.16.427.24.653.24.68 0 .187-.08.333-.24.44a.84.84 0 0 1-.44.12c-.293 0-.72-.187-1.28-.56-.533-.4-1.067-.84-1.6-1.32-.373-.347-.733-.68-1.08-1-.347-.347-.6-.613-.76-.8V36.8h-4.68V21.48c-.453.987-1.107 2.067-1.96 3.24a25.192 25.192 0 0 1-2.8 3.24c-1.013.987-2.04 1.693-3.08 2.12-.027.027-.093.04-.2.04a.657.657 0 0 1-.2-.04c-.08-.053-.12-.12-.12-.2 0-.053.04-.133.12-.24.08-.133.173-.293.28-.48.16-.32.333-.653.52-1 .213-.373.347-.613.4-.72a38.819 38.819 0 0 0 2.16-5.36 40.787 40.787 0 0 0 1.36-5.6l1.76.56c.587.187 1.173.36 1.76.52v-3.08h-6.48v-1.76h6.48V7.56a130.77 130.77 0 0 1-3.2.36 43.31 43.31 0 0 1-3.24.12 2.51 2.51 0 0 1-.4-.04c-.16-.053-.24-.16-.24-.32 0-.213.16-.36.48-.44a7.63 7.63 0 0 0 .84-.28c.373-.133.627-.213.76-.24a44.959 44.959 0 0 0 5.68-2.44 52.734 52.734 0 0 0 5.28-3.12c.347.213.773.507 1.28.88.533.373 1.04.747 1.52 1.12.48.347.827.6 1.04.76.133.107.2.24.2.4 0 .24-.28.493-.84.76-.4.213-.92.44-1.56.68-.64.213-1.24.4-1.8.56-.533.16-.907.267-1.12.32v6.08h1.56c0-.533.213-.973.64-1.32.427-.373.893-.56 1.4-.56.533 0 .987.2 1.36.6.4.373.6.827.6 1.36Zm7.36 7.36c0 .24-.08.427-.24.56a.986.986 0 0 1-.56.16.891.891 0 0 1-.4-.08 5.403 5.403 0 0 1-.36-.2 67.58 67.58 0 0 0-3.36-1.84 131.663 131.663 0 0 1-3.32-1.8l.72-.72c.347-.347.707-.693 1.08-1.04.373-.373.68-.693.92-.96.48-.533.907-.8 1.28-.8.24 0 .533.2.88.6.347.373.707.853 1.08 1.44.4.587.773 1.2 1.12 1.84.347.613.627 1.187.84 1.72.213.507.32.88.32 1.12Zm13.6-.12a2.44 2.44 0 0 1-.52 1.52c-.32.427-.747.707-1.28.84l-5.16 1.4v13.28h-4.6V24.84L57.32 27.6l-.6-2.08L68.2 22.6V2.56h4.6v19l1.96-.52c-.08-.053-.133-.16-.16-.32a3.302 3.302 0 0 1-.04-.44c0-.72.267-1.32.8-1.8a2.64 2.64 0 0 1 1.88-.76c.613 0 1.187.227 1.72.68.533.453.8 1 .8 1.64Zm-12.92-8.6c0 .48-.267.72-.8.72a1.07 1.07 0 0 1-.4-.08 4.78 4.78 0 0 0-.36-.16 206.56 206.56 0 0 1-3.36-1.8 205.672 205.672 0 0 0-3.28-1.88c.16-.16.413-.427.76-.8.347-.4.72-.813 1.12-1.24a13.66 13.66 0 0 1 1.2-1.08c.373-.32.653-.48.84-.48.24 0 .533.2.88.6.373.373.747.853 1.12 1.44.4.587.773 1.2 1.12 1.84.347.64.627 1.227.84 1.76.213.533.32.92.32 1.16Zm42.56 17.48c0 .827-.333 1.533-1 2.12-.64.56-1.307 1-2 1.32-1.36.64-2.813 1.12-4.36 1.44-1.52.293-3.027.44-4.52.44-1.28 0-2.56-.12-3.84-.36-1.253-.24-2.44-.64-3.56-1.2a8.683 8.683 0 0 1-2.84-2.24c-.773-.96-1.307-2.147-1.6-3.56.187-.133.52-.373 1-.72.507-.373 1.013-.72 1.52-1.04.507-.32.853-.48 1.04-.48.24 0 .4.147.48.44.133.4.267.787.4 1.16.133.347.307.707.52 1.08.853 1.44 2.067 2.547 3.64 3.32 1.573.773 3.173 1.16 4.8 1.16 1.093 0 2.147-.08 3.16-.24a20.912 20.912 0 0 0 3.08-.8 4.196 4.196 0 0 1-.52-.76c-.133-.32-.2-.627-.2-.92 0-.587.24-1.093.72-1.52.48-.453 1-.68 1.56-.68.533 0 1.08.187 1.64.56.587.373.88.867.88 1.48Zm-2.08-19.64c0 .64-.28 1.32-.84 2.04a12.158 12.158 0 0 1-1.96 1.92c-.72.587-1.333 1.04-1.84 1.36-.187.133-.4.28-.64.44a7.755 7.755 0 0 1-.64.36c-.187.08-.4.12-.64.12a.914.914 0 0 1-.48-.12.534.534 0 0 1-.2-.44c0-.213.093-.52.28-.92.187-.427.373-.88.56-1.36.187-.507.28-.96.28-1.36 0-.48-.147-.813-.44-1-.267-.213-.6-.347-1-.4a8.128 8.128 0 0 0-1.08-.16 14.64 14.64 0 0 0-1.12-.04c-.373-.027-.747-.04-1.12-.04a44.7 44.7 0 0 0-4.2.2c-1.387.133-2.773.28-4.16.44l.04-2.48c2.853-.24 5.72-.36 8.6-.36 1.6 0 3.2.053 4.8.16 1.627.08 3.227.293 4.8.64.213.027.413.107.6.24.267.107.4.36.4.76Zm7.56 2.16c0 .08-.053.173-.16.28a.383.383 0 0 1-.28.12c-.187 0-.507-.08-.96-.24-.453-.16-.96-.36-1.52-.6a68.515 68.515 0 0 0-1.56-.68c-.48-.213-.853-.36-1.12-.44a6.08 6.08 0 0 1-.32-.12c-.107-.053-.16-.133-.16-.24 0-.16.16-.427.48-.8.32-.4.653-.76 1-1.08.373-.347.64-.52.8-.52.293 0 .653.173 1.08.52.427.32.84.733 1.24 1.24.427.48.773.96 1.04 1.44.293.453.44.827.44 1.12Zm2.48-3.72c0 .08-.053.173-.16.28a.383.383 0 0 1-.28.12c-.08 0-.307-.08-.68-.24a25.324 25.324 0 0 0-1.2-.6l-1.28-.68c-.373-.213-.627-.36-.76-.44a3.797 3.797 0 0 0-.6-.2 6.628 6.628 0 0 1-.76-.36c-.24-.133-.36-.253-.36-.36 0-.16.16-.427.48-.8.32-.373.667-.72 1.04-1.04.4-.32.68-.48.84-.48.32 0 .693.187 1.12.56.427.373.827.84 1.2 1.4.4.533.733 1.067 1 1.6.267.507.4.92.4 1.24Zm34.88 20.32c0 .507-.2 1.013-.6 1.52a7.12 7.12 0 0 1-1.36 1.32c-.507.373-.96.68-1.36.92-.827.453-1.827.893-3 1.32-1.147.427-2.32.773-3.52 1.04-1.173.293-2.24.44-3.2.44-1.12 0-2.307-.12-3.56-.36a13.515 13.515 0 0 1-3.56-1.12c-1.093-.56-1.987-1.293-2.68-2.2-.693-.933-1.04-2.093-1.04-3.48 0-1.2.307-2.307.92-3.32a11.862 11.862 0 0 1 2.44-2.76 22.777 22.777 0 0 1 3.12-2.2 44.92 44.92 0 0 1 3.04-1.64 4.547 4.547 0 0 1-1.16-1.32 7.667 7.667 0 0 1-.68-1.68c-.107-.373-.2-.747-.28-1.12l-.16-1.12c-.187-1.467-.36-2.933-.52-4.4l-.4-4.4 4.8-.28c.053 1.147.093 2.293.12 3.44.027 1.147.067 2.307.12 3.48l.08 1.8c.027.587.093 1.187.2 1.8.027.133.08.36.16.68.107.293.24.573.4.84.16.24.333.36.52.36.16 0 .427-.107.8-.32.373-.24.747-.467 1.12-.68.4-.213.72-.32.96-.32s.413.04.52.12c.133.08.293.2.48.36.187.16.427.413.72.76.293.32.547.667.76 1.04.24.347.36.653.36.92 0 .427-.16.707-.48.84-.293.133-.627.2-1 .2h-.56a3.161 3.161 0 0 0-.52-.04c-1.093 0-2.32.173-3.68.52-1.36.347-2.667.867-3.92 1.56-1.227.693-2.253 1.547-3.08 2.56-.8.987-1.2 2.133-1.2 3.44 0 1.227.387 2.24 1.16 3.04.773.773 1.707 1.347 2.8 1.72 1.12.373 2.2.56 3.24.56 1.493 0 3.067-.187 4.72-.56 1.68-.373 3.2-.88 4.56-1.52-.853-.293-1.28-.907-1.28-1.84 0-.56.253-1.027.76-1.4.533-.4 1.067-.6 1.6-.6.587 0 1.12.2 1.6.6.48.373.72.867.72 1.48Zm37.6-7.56c0 1.973-.427 3.813-1.28 5.52a17.372 17.372 0 0 1-3.36 4.56c-1.227 1.227-2.547 2.213-3.96 2.96a36.717 36.717 0 0 1-4.52 2c-.267.08-.693.213-1.28.4-.56.187-1.12.36-1.68.52-.56.16-.96.24-1.2.24a.715.715 0 0 1-.36-.12c-.133-.053-.2-.147-.2-.28 0-.16.067-.293.2-.4a.985.985 0 0 1 .36-.2c.533-.213 1.147-.48 1.84-.8.693-.32 1.307-.653 1.84-1a24.21 24.21 0 0 0 4.28-3.48c1.333-1.36 2.4-2.88 3.2-4.56.8-1.68 1.2-3.467 1.2-5.36a9.18 9.18 0 0 0-.44-2.76c-.267-.96-.72-1.76-1.36-2.4-.64-.64-1.507-.96-2.6-.96-.747 0-1.64.213-2.68.64a21.495 21.495 0 0 0-3 1.56c-.96.587-1.733 1.12-2.32 1.6a6.21 6.21 0 0 1-.44.32.986.986 0 0 1-.56.16c-.267 0-.453-.08-.56-.24a4.64 4.64 0 0 1-.2-.56 8.1 8.1 0 0 1-.28-1.48 25.723 25.723 0 0 0-.12-1.52 27.778 27.778 0 0 1 5.08-1.88c1.733-.453 3.52-.68 5.36-.68 2.693 0 4.867.653 6.52 1.96 1.68 1.307 2.52 3.387 2.52 6.24ZM184.6 8.92c0 .24-.133.387-.4.44-.267.027-.48.04-.64.04-.613 0-1.227-.04-1.84-.12a53.52 53.52 0 0 1-1.8-.36c-.213-.053-.64-.187-1.28-.4-.613-.213-1.28-.453-2-.72a24.008 24.008 0 0 1-1.8-.84c-.507-.293-.76-.547-.76-.76 0-.08.107-.267.32-.56.213-.32.467-.653.76-1 .32-.373.613-.707.88-1 .267-.293.44-.48.52-.56.213-.16.44-.24.68-.24.16 0 .293.04.4.12.187.107.427.32.72.64l.68.68c.667.747 1.4 1.427 2.2 2.04A67.656 67.656 0 0 0 183.72 8c.16.107.347.227.56.36.213.133.32.32.32.56Zm32.28 16.44-.08 7.68a22.982 22.982 0 0 0 3-.6c1.013-.267 2-.573 2.96-.92a33.6 33.6 0 0 1-1.52-1.88 51.59 51.59 0 0 1-1.4-1.96l3.36-1.12a69.948 69.948 0 0 0 3.32-1.2h-9.64Zm-2.6-12.64v-2.64h-2.96v2.64h2.96Zm0-4.28V5.92h-2.96v2.52h2.96Zm6.96 4.28v-2.64h-2.6v2.64h2.6Zm0-4.28V5.92h-2.6v2.52h2.6Zm7.72-2.52h-3.32v2.52h.2c.08-.293.24-.52.48-.68.267-.187.547-.28.84-.28.373 0 .68.133.92.4.24.24.36.547.36.92 0 .507-.16.853-.48 1.04-.32.16-.693.24-1.12.24h-1.2v2.64h.56c.933 0 1.627-.253 2.08-.76.453-.533.68-1.253.68-2.16V5.92Zm8.76 30c0 .453-.2.84-.6 1.16-.373.347-.787.52-1.24.52-2.427 0-4.6-.44-6.52-1.32-1.893-.853-3.707-2.093-5.44-3.72a13.68 13.68 0 0 1-5.36 3.16 38.281 38.281 0 0 1-6.12 1.4l.08-11.76h-2.04c-.267 2.107-.827 4.067-1.68 5.88-.853 1.787-2.16 3.347-3.92 4.68-.347.267-.813.547-1.4.84-.587.32-1.107.48-1.56.48-.107 0-.2-.053-.28-.16a.433.433 0 0 1-.08-.24c0-.053.107-.227.32-.52.24-.267.48-.56.72-.88.267-.32.427-.533.48-.64 1.333-1.973 2.173-4.093 2.52-6.36.373-2.267.56-4.573.56-6.92 0-.907-.013-1.8-.04-2.68 0-.907-.013-1.813-.04-2.72H232a2.631 2.631 0 0 1 .6-1.6c.4-.48.92-.72 1.56-.72.613 0 1.16.173 1.64.52.507.32.76.813.76 1.48 0 .72-.227 1.24-.68 1.56-.427.32-.973.48-1.64.48H210.8v2c.027.667.04 1.347.04 2.04 0 .267-.013.547-.04.84 0 .267-.013.547-.04.84h21.96a2.09 2.09 0 0 1 .68-1.36c.427-.373.907-.56 1.44-.56.533 0 1.027.173 1.48.52.453.32.68.76.68 1.32 0 .533-.2.987-.6 1.36-.373.347-.827.52-1.36.52h-4.44c.107.08.307.253.6.52s.573.533.84.8.4.453.4.56c0 .187-.12.347-.36.48-.053.027-.373.067-.96.12-.587.053-1.28.107-2.08.16-.773.053-1.493.107-2.16.16-.667.027-1.107.053-1.32.08.987 1.547 2.187 3 3.6 4.36 1.44 1.36 2.973 2.467 4.6 3.32v-.04c.107-.533.333-.987.68-1.36.373-.347.853-.52 1.44-.52.533 0 .973.187 1.32.56.347.373.52.827.52 1.36ZM230.76 20c0 .507-.187.907-.56 1.2-.347.267-.76.4-1.24.4h-15.4v-1.72h13.72c.08-.4.293-.733.64-1 .347-.267.72-.4 1.12-.4.4 0 .787.147 1.16.44.373.293.56.653.56 1.08Zm2.88-10c0 1.253-.307 2.187-.92 2.8-.613.587-1.387.973-2.32 1.16-.933.187-1.907.28-2.92.28h-20.64V4.2h7.44V.76h4.36V4.2h2.6V.8h4.4v3.4h8V10Zm29.88 8.4h-8.24v2.96h6.64c.587 0 1-.173 1.24-.52.24-.347.36-.787.36-1.32V18.4Zm6.8 11.64c0 .4-.16.76-.48 1.08-.293.32-.653.48-1.08.48-.827 0-1.707-.28-2.64-.84-.933-.56-1.8-1.213-2.6-1.96a26.14 26.14 0 0 1-1.96-2.08v6.04h-4.4v-6.64a18.402 18.402 0 0 1-3.56 2.64 13.288 13.288 0 0 1-4.12 1.56.303.303 0 0 0-.12.04h-.16c-.08 0-.173-.013-.28-.04a.27.27 0 0 1-.12-.24c0-.16.093-.307.28-.44a31.163 31.163 0 0 0 3.6-3.08 22.185 22.185 0 0 0 2.92-3.72h-4.44v-6h16.6v2.56c0 1.093-.4 1.947-1.2 2.56-.773.587-1.667.88-2.68.88h-2.32v2.8a74.79 74.79 0 0 0 3.24-1.68 26.252 26.252 0 0 0 3.04-2.04c.16.133.44.373.84.72.4.347.773.707 1.12 1.08.347.373.52.653.52.84 0 .187-.067.32-.2.4-.107.08-.4.16-.88.24-.48.053-1.027.12-1.64.2-.587.053-1.147.107-1.68.16a62.57 62.57 0 0 0-1.08.12c.293.613.693 1.32 1.2 2.12.533.8 1.04 1.453 1.52 1.96.107-.293.28-.533.52-.72.267-.213.56-.32.88-.32.373 0 .693.133.96.4.267.24.4.547.4.92Zm-.12-16.72c0 .533-.173.96-.52 1.28-.347.32-.787.48-1.32.48h-18.92v-1.64h7.76v-2.72h-5.68V9.04h5.68v-3h4.4v3h2.4c0-.533.187-.973.56-1.32.4-.373.867-.56 1.4-.56.453 0 .88.187 1.28.56.4.373.6.787.6 1.24 0 .533-.213.96-.64 1.28-.4.32-.853.48-1.36.48h-4.24v2.72h4.84c.053-.533.253-.973.6-1.32.347-.373.787-.56 1.32-.56.48 0 .907.173 1.28.52.373.347.56.76.56 1.24Zm.96-8h-22.44L248.64 34h17.8c1.28 0 2.253-.293 2.92-.88.693-.613 1.16-1.4 1.4-2.36.267-.987.4-2.013.4-3.08V5.32ZM276 27.4c0 3.173-.72 5.413-2.16 6.72-1.44 1.333-3.733 2-6.88 2h-22.88l.08-32.96H276V27.4Z"/></svg>